Coordinates
version=1
nRows=14
nColumns=24
inDegrees=yes

Units are S.I. units (second, meters, Newtons, ...)
Angles are in degrees.

endheader
time	pelvis_tilt	pelvis_list	pelvis_rotation	pelvis_tx	pelvis_ty	pelvis_tz	hip_flexion_r	hip_adduction_r	hip_rotation_r	knee_angle_r	ankle_angle_r	subtalar_angle_r	mtp_angle_r	hip_flexion_l	hip_adduction_l	hip_rotation_l	knee_angle_l	ankle_angle_l	subtalar_angle_l	mtp_angle_l	lumbar_extension	lumbar_bending	lumbar_rotation
      5.39000000	      3.98704554	      3.56635726	      5.90257825	     -2.22084429	      0.91857492	      0.44335864	     17.24075797	     -3.17425303	     -9.35810253	      0.33719841	      9.07235012	      3.49941619	      0.00000000	    -19.61765290	      4.79861708	      9.18320217	    -10.54768301	     14.85278333	      0.13362530	      0.00000000	    -24.91091519	     -1.49688644	    -17.02825121
      5.40000000	      3.99099826	      3.34516472	      5.82436009	     -2.20725209	      0.91740885	      0.44449930	     17.16157110	     -2.75264973	     -8.30348894	     -0.60433141	      8.42385125	      1.83194369	      0.00000000	    -19.92797890	      4.45923964	      9.01645326	    -11.52817921	     14.44560087	      0.42765357	      0.00000000	    -24.66459515	     -1.34967800	    -16.79430276
      5.41000000	      3.96144172	      3.05967682	      5.74191095	     -2.19338839	      0.91634044	      0.44569927	     17.03353880	     -2.24445596	     -7.01143465	     -1.55097640	      7.22315299	     -0.28284649	      0.00000000	    -20.13011575	      4.06363677	      8.80419075	    -12.63315759	     13.85742806	      0.69580483	      0.00000000	    -24.33190901	     -1.14335768	    -16.54543074
      5.42000000	      3.89957901	      2.67933490	      5.64904721	     -2.17931343	      0.91542824	      0.44696391	     16.87962091	     -1.61981962	     -5.61956931	     -2.46484048	      5.56739042	     -2.61321870	      0.00000000	    -20.19552796	      3.58353405	      8.50533662	    -13.89698705	     13.11336280	      0.96663533	      0.00000000	    -23.92173995	     -0.84488080	    -16.25309240
      5.43000000	      3.80790899	      2.18960531	      5.53040053	     -2.16510966	      0.91473529	      0.44826010	     16.72631656	     -0.87275468	     -4.23394136	     -3.33868190	      3.61281200	     -4.94546620	      0.00000000	    -20.09825395	      3.01559493	      8.10564563	    -15.35146511	     12.13828197	      1.20017360	      0.00000000	    -23.44845707	     -0.42218391	    -15.91056092
      5.44000000	      3.74219867	      1.59787465	      5.35967599	     -2.15087638	      0.91437580	      0.44958329	     16.53524933	     -0.00922532	     -2.85265926	     -4.18516375	      1.54776267	     -7.06178253	      0.00000000	    -19.88226529	      2.37215418	      7.59786097	    -17.00369584	     10.85056010	      1.36292463	      0.00000000	    -23.00079595	      0.11890636	    -15.50878344
      5.45000000	      3.66922829	      0.92710104	      5.13621193	     -2.13669054	      0.91431762	      0.45091824	     16.39948336	      0.93688760	     -1.56445957	     -5.12069645	     -0.22994480	     -8.84242518	      0.00000000	    -19.48628828	      1.67960224	      6.99023726	    -18.88419148	      9.20527809	      1.42223941	      0.00000000	    -22.55556347	      0.74647503	    -15.03348763
      5.46000000	      3.69972513	      0.21351856	      4.84222193	     -2.12265664	      0.91467741	      0.45226076	     16.20389386	      1.94532259	     -0.34109430	     -6.16755535	     -1.61689793	    -10.29111337	      0.00000000	    -19.01589521	      0.96745475	      6.28043649	    -20.99831954	      7.17813636	      1.32360261	      0.00000000	    -22.27355155	      1.43402086	    -14.50893579
      5.47000000	      3.70834565	     -0.48683428	      4.48441169	     -2.10879277	      0.91527130	      0.45359684	     16.10709531	      2.94816980	      0.72450517	     -7.40495580	     -2.17529178	    -11.13366251	      0.00000000	    -18.32971297	      0.30255314	      5.56096596	    -23.35820497	      4.73298459	      1.12876476	      0.00000000	    -21.99580472	      2.10692377	    -13.94522264
      5.48000000	      3.81063782	     -1.14959830	      4.09600972	     -2.09520313	      0.91618290	      0.45492473	     15.93655715	      3.93279359	      1.68257793	     -8.74619195	     -2.19047602	    -11.74935659	      0.00000000	    -17.53281203	     -0.32458292	      4.83205918	    -25.97286030	      1.97730153	      0.85053532	      0.00000000	    -21.89219448	      2.74678438	    -13.37476364
      5.49000000	      3.94084330	     -1.76670405	      3.70901400	     -2.08192511	      0.91727337	      0.45623022	     15.73179841	      4.87655194	      2.46112209	    -10.12755445	     -1.64120662	    -12.07607935	      0.00000000	    -16.53719655	     -0.92094165	      4.12850056	    -28.86354123	     -0.92747985	      0.63319162	      0.00000000	    -21.87857995	      3.34056991	    -12.81735917
      5.50000000	      4.02066998	     -2.27786847	      3.40073971	     -2.06899531	      0.91845655	      0.45744076	     15.47905359	      5.69801124	      3.21207337	    -11.36146454	     -0.80660964	    -12.40090775	      0.00000000	    -15.27931163	     -1.40931027	      3.70973312	    -31.97043319	     -4.02800758	      0.28804704	      0.00000000	    -21.85339138	      3.82660432	    -12.36969084
      5.51000000	      4.07692673	     -2.74022055	      3.19081347	     -2.05646660	      0.91969672	      0.45854430	     15.15093811	      6.43676851	      3.73573875	    -12.40398792	      0.23643894	    -12.60468068	      0.00000000	    -13.77121282	     -1.87048677	      3.46634083	    -35.30078945	     -7.01948886	     -0.05612398	      0.00000000	    -21.85371363	      4.27244862	    -11.99178783
      5.52000000	      4.08258521	     -3.19181285	      3.11587393	     -2.04433504	      0.92093904	      0.45949977	     14.73773660	      7.11199058	      4.01358317	    -13.14912471	      1.31225591	    -12.74749473	      0.00000000	    -11.99607085	     -2.34594880	      3.40969022	    -38.80938445	     -9.74767864	     -0.41622069	      0.00000000	    -21.83165636	      4.72124683	    -11.66316292
